<svg xmlns="http://www.w3.org/2000/svg" aria-hidden="true" style="width: 0; height: 0; position: absolute;"><symbol id="icon-rain" viewBox="14344.797 -1250.273 149.808 129.581"><path d="m14417.458-1216.608-1.945 2.282-3.937 4.675-3.937 4.766-3.598 4.403-3.606 4.466-1.953 2.437a1.93 1.93 0 0 1-3.041-2.376l1.892-2.484 3.461-4.58 3.402-4.556 3.673-4.973 3.584-4.95 1.744-2.44a2.704 2.704 0 0 1 4.261 3.33M14463.655-1185.818l-1.945 2.282-3.937 4.675-3.937 4.766-3.599 4.403-3.606 4.466-1.953 2.437a1.93 1.93 0 0 1-3.04-2.376l1.891-2.485 3.462-4.579 3.402-4.556 3.672-4.973 3.584-4.95 1.744-2.44a2.704 2.704 0 0 1 4.262 3.33M14428.192-1208.532l-2.219 2.604-5.419 6.522-6.562 8.088-7.344 9.166-3.982 4.997a2.052 2.052 0 0 1-3.233-2.526l3.886-5.072 7.118-9.342 6.26-8.325 5.018-6.835 1.99-2.782a2.846 2.846 0 0 1 4.487 3.505M14464.848-1207.565l-1.836 2.116-4.971 5.949-6.839 8.44-8.093 10.126-4.39 5.519a2.052 2.052 0 0 1-3.233-2.527l4.294-5.593 7.867-10.302 6.536-8.677 4.57-6.263 1.61-2.293a2.846 2.846 0 0 1 4.485 3.505M14432.214-1189.32l-1.836 2.115-4.971 5.95-6.839 8.44-8.093 10.126-4.39 5.518a2.052 2.052 0 0 1-3.233-2.526l4.294-5.594 7.867-10.301 6.536-8.677 4.57-6.263 1.61-2.293a2.846 2.846 0 0 1 4.485 3.505M14461.52-1161.549l-1.897 2.193-4.11 4.847-2.213 2.654a2.338 2.338 0 0 1-3.684-2.878l2.04-2.79 3.709-5.16 1.669-2.371a2.846 2.846 0 0 1 4.486 3.505M14428.171-1160.947l-1.897 2.193-4.11 4.847-2.213 2.654a2.338 2.338 0 0 1-3.684-2.879l2.04-2.79 3.709-5.16 1.669-2.37a2.846 2.846 0 0 1 4.486 3.505M14395.039-1166.182l-1.897 2.193-4.11 4.847-2.214 2.654a2.338 2.338 0 0 1-3.684-2.878l2.04-2.79 3.71-5.16 1.669-2.371a2.846 2.846 0 0 1 4.486 3.505M14448.994-1212.442l-1.897 2.193-4.11 4.847-2.213 2.654a2.338 2.338 0 0 1-3.685-2.879l2.04-2.79 3.71-5.16 1.669-2.37a2.846 2.846 0 0 1 4.486 3.505M14387.189-1182.202l-1.897 2.193-4.11 4.847-2.213 2.654a2.338 2.338 0 0 1-3.684-2.878l2.04-2.79 3.709-5.16 1.669-2.371a2.846 2.846 0 0 1 4.486 3.505M14397.293-1213.457l-1.945 2.282-3.937 4.675-3.937 4.766-3.598 4.403-3.606 4.466-1.953 2.437a1.93 1.93 0 0 1-3.041-2.376l1.891-2.485 3.462-4.579 3.402-4.556 3.673-4.973 3.584-4.95 1.743-2.44a2.704 2.704 0 0 1 4.262 3.33"></path></symbol></svg>